<?xml version="1.0" encoding="utf-8"?>
<!-- Generator: Adobe Illustrator 14.0.0, SVG Export Plug-In  -->
<!DOCTYPE svg PUBLIC "-//W3C//DTD SVG 1.1//EN" "http://www.w3.org/Graphics/SVG/1.1/DTD/svg11.dtd" [
	<!ENTITY ns_flows "http://ns.adobe.com/Flows/1.0/">
]>
<svg version="1.1"
	 xmlns="http://www.w3.org/2000/svg" xmlns:xlink="http://www.w3.org/1999/xlink" xmlns:a="http://ns.adobe.com/AdobeSVGViewerExtensions/3.0/"
	 x="0px" y="0px" width="373px" height="175px" viewBox="0 0 373 175" enable-background="new 0 0 373 175" xml:space="preserve">
<defs>
</defs>
<path fill="#0061A2" d="M9.625,167.679c2.675,0,4.414-0.801,5.831-2.165c1.873-1.846,2.783-4.547,2.783-7.329
	c0-3.076-1.338-5.727-3.263-7.089c-1.338-0.937-2.863-1.337-4.494-1.337c-1.847,0-3.479,0.428-5.056,1.497
	c-2.033,1.392-3.719,4.174-3.719,7.597c0,2.861,0.883,5.082,2.381,6.58C5.427,166.797,7.298,167.679,9.625,167.679L9.625,167.679z
	 M10.027,166.342c-1.552,0-2.97-0.507-4.039-1.659c-1.418-1.496-1.979-3.342-1.979-5.989c0-2.995,1.124-5.084,2.354-6.208
	c1.017-0.909,2.327-1.39,3.798-1.39c1.605,0,2.836,0.507,3.879,1.631c1.284,1.444,1.9,3.558,1.9,6.02
	c0,2.941-0.91,4.734-1.926,5.937C13.05,165.781,11.606,166.342,10.027,166.342L10.027,166.342z M22.117,150.48
	c0.027,4.681,0,10.86-0.027,15.567c0,0.054-0.027,0.106-0.081,0.106l-1.792,0.083c-0.026,0.373-0.026,0.801-0.026,1.176
	c0.882,0,1.926-0.028,2.888-0.028c1.124,0,2.221,0,3.104,0c0.026-0.374,0.026-0.803,0.026-1.147l-2.086-0.083
	c0.027-5.322,0.081-12.545,0.107-17.386c0-0.081-0.026-0.106-0.08-0.106c-0.215,0-2.997,0.507-4.146,0.613
	c0,0.375-0.027,0.778-0.027,1.151L22.117,150.48L22.117,150.48z M36.295,166.476c0.267,0.617,0.535,0.989,0.803,1.203
	c1.069,0,2.701-0.294,3.129-0.452c0-0.349,0-0.776,0-1.125l-1.82,0.08c-0.241,0-0.294-0.213-0.294-0.562
	c0-5.188,0.081-12.091,0.081-16.852c0-0.081-0.028-0.106-0.081-0.106c-0.24,0-2.888,0.507-4.227,0.668
	c-0.026,0.373-0.026,0.774-0.026,1.15l2.22,0.053c0.026,1.979,0.026,3.771,0.053,5.833l-0.106,0.079
	c-0.775-0.293-1.685-0.534-2.648-0.534c-1.711,0-3.076,0.668-3.986,1.711c-1.123,1.259-1.792,2.944-1.792,4.682
	c0,1.738,0.535,3.075,1.552,4.065c0.829,0.83,2.006,1.31,3.263,1.31c0.937,0,1.499-0.079,3.718-1.203H36.295L36.295,166.476z
	 M36.081,164.817c0,0.187-0.026,0.296-0.161,0.4c-0.882,0.617-1.845,1.044-2.969,1.044c-0.855,0-1.711-0.348-2.274-1.097
	c-0.615-0.828-0.855-1.766-0.855-3.103c0-1.524,0.321-2.621,0.963-3.478c0.616-0.856,1.579-1.283,2.648-1.283
	c0.964,0,1.845,0.268,2.622,0.695C36.081,160.029,36.081,162.465,36.081,164.817L36.081,164.817z M41.511,162.276
	c0,3.131,1.926,5.402,5.403,5.402c1.151,0,2.782-0.4,4.253-1.124c-0.053-0.373-0.16-0.827-0.295-1.203
	c-0.935,0.376-2.327,0.858-3.558,0.858c-1.097,0-1.953-0.162-2.755-1.071c-0.615-0.721-0.909-1.846-0.882-3.317
	c1.684,0,5.216-0.025,6.793-0.079c0.268-0.028,0.776-0.642,0.91-0.963c0-1.205-0.242-2.517-1.017-3.506
	c-0.696-0.854-1.766-1.362-3.157-1.362C43.757,155.911,41.511,158.798,41.511,162.276L41.511,162.276z M46.888,157.167
	c0.802,0,1.338,0.293,1.739,0.802c0.401,0.483,0.723,1.339,0.723,2.248c0,0.215-0.135,0.294-0.349,0.294
	c-1.525,0.056-3.691,0.08-5.216,0.08c0.081-1.363,0.776-2.193,1.125-2.622C45.362,157.46,45.979,157.167,46.888,157.167
	L46.888,157.167z M55.045,157.756c0,2.542,0,5.699,0,8.346c0,0.027-0.053,0.08-0.106,0.08l-1.552,0.08
	c-0.027,0.349-0.027,0.776-0.027,1.151c0.856,0,1.845-0.028,2.782-0.028c1.15,0,2.434,0,3.398,0
	c0.026-0.374,0.026-0.803,0.026-1.147l-2.514-0.056c0-0.882,0-1.953,0.026-2.889c0-0.854,0.134-1.847,0.454-2.433
	c0.669-1.314,1.258-2.087,1.74-2.517c0.401-0.294,0.642-0.375,0.91-0.375c0.481,0,1.123,0.16,1.363,0.188
	c0.321-0.24,0.75-1.39,0.75-1.951c-0.375-0.162-0.991-0.294-1.579-0.294c-1.123,0-2.086,0.694-3.611,3.69l-0.134-0.027
	c-0.027-1.418-0.053-2.862-0.106-3.559c0-0.052,0-0.079-0.027-0.079c-0.162,0-2.649,0.509-3.719,0.669
	c-0.027,0.375-0.027,0.75-0.027,1.123L55.045,157.756L55.045,157.756z M67.913,166.182c-0.027,0.4-0.027,0.803-0.027,1.231
	c0.721,0,1.578-0.028,2.353-0.028c1.284,0,2.515,0,3.559,0c0.026-0.4,0.026-0.83,0.026-1.23l-2.407-0.079
	c0.401-1.23,0.962-2.782,1.417-4.065l6.394-0.027c0.107,0,0.161,0.027,0.188,0.132c0.428,1.124,0.936,2.624,1.364,3.854
	c0.026,0.052,0,0.133-0.053,0.133l-2.087,0.08c0,0.4-0.026,0.829-0.026,1.231c1.07,0,2.3-0.028,3.531-0.028c0.829,0,1.792,0,2.514,0
	c0.027-0.374,0.027-0.83,0.027-1.23l-1.631-0.079c-1.74-4.815-4.067-11.504-5.86-16.316c-0.588,0-1.149,0-1.471,0.026
	c-1.818,4.786-4.306,11.422-6.178,16.184c-0.028,0.079-0.081,0.106-0.135,0.133L67.913,166.182L67.913,166.182z M76.258,152.754
	c0.856,2.488,1.899,5.509,2.728,7.972h-5.617c-0.081,0-0.107-0.055-0.054-0.159c0.883-2.382,1.926-5.379,2.835-7.812H76.258
	L76.258,152.754z M94.473,166.476c0.268,0.617,0.535,0.989,0.803,1.203c1.071,0,2.702-0.294,3.13-0.452c0-0.349,0-0.776,0-1.125
	l-1.82,0.08c-0.24,0-0.293-0.213-0.293-0.562c0-5.188,0.079-12.091,0.079-16.852c0-0.081-0.025-0.106-0.079-0.106
	c-0.241,0-2.889,0.507-4.226,0.668c-0.028,0.373-0.028,0.774-0.028,1.15l2.22,0.053c0.027,1.979,0.027,3.771,0.054,5.833
	l-0.106,0.079c-0.777-0.293-1.685-0.534-2.649-0.534c-1.712,0-3.076,0.668-3.985,1.711c-1.123,1.259-1.792,2.944-1.792,4.682
	c0,1.738,0.535,3.075,1.551,4.065c0.83,0.83,2.006,1.31,3.264,1.31c0.936,0,1.498-0.079,3.718-1.203H94.473L94.473,166.476z
	 M94.259,164.817c0,0.187-0.026,0.296-0.16,0.4c-0.883,0.617-1.846,1.044-2.97,1.044c-0.856,0-1.711-0.348-2.273-1.097
	c-0.616-0.828-0.856-1.766-0.856-3.103c0-1.524,0.322-2.621,0.963-3.478c0.616-0.856,1.578-1.283,2.648-1.283
	c0.963,0,1.846,0.268,2.622,0.695C94.259,160.029,94.259,162.465,94.259,164.817L94.259,164.817z M108.437,166.262
	c0.294,0.669,0.588,1.151,0.856,1.417c1.204,0,2.702-0.294,3.022-0.4c0.027-0.348,0.027-0.774,0.027-1.124l-1.792,0.027
	c-0.135,0-0.187-0.106-0.187-0.374c0-3.129,0.052-6.526,0.052-9.551c0-0.052-0.026-0.08-0.052-0.08
	c-0.349,0-2.729,0.054-3.719,0.054c-0.026,0.402-0.026,0.857-0.026,1.258l1.711,0.054c0,2.004,0.026,5.082,0,7.303
	c-1.123,0.828-2.22,1.337-3.156,1.337c-0.749,0-1.391-0.24-1.846-0.964c-0.429-0.693-0.401-1.444-0.401-2.565
	c0-2.221,0.026-4.361,0.081-6.396c0-0.052-0.027-0.08-0.081-0.08c-0.32,0-2.674,0.08-3.611,0.107
	c-0.027,0.4-0.053,0.831-0.053,1.231l1.631,0.026c0,1.926-0.027,4.172-0.027,6.473c0,1.82,1.659,3.664,3.451,3.664
	c1.069,0,1.631-0.052,3.985-1.441L108.437,166.262L108.437,166.262z M115.178,150.48c0.027,4.681,0,10.86-0.026,15.567
	c0,0.054-0.027,0.106-0.081,0.106l-1.792,0.083c-0.027,0.373-0.027,0.801-0.027,1.176c0.883,0,1.926-0.028,2.889-0.028
	c1.124,0,2.221,0,3.103,0c0.027-0.374,0.027-0.803,0.027-1.147l-2.086-0.083c0.027-5.322,0.081-12.545,0.108-17.386
	c0-0.081-0.027-0.106-0.081-0.106c-0.214,0-2.996,0.507-4.146,0.613c0,0.375-0.027,0.778-0.027,1.151L115.178,150.48L115.178,150.48
	z M125.021,167.654c0.989,0,2.515-0.214,3.772-0.67c-0.054-0.374-0.108-0.83-0.188-1.177c-0.937,0.24-1.953,0.402-2.568,0.402
	c-0.937,0-1.739-0.482-1.739-1.632c0-1.312,0-2.864,0.027-3.961c0-0.854,0-2.593,0-2.995c1.525,0,2.969,0,4.172,0
	c0.028-0.4,0.081-0.91,0.081-1.392c-1.365,0.026-2.836,0.026-4.2,0.026c0-1.123,0.027-2.568,0.053-3.476
	c0-0.055-0.026-0.083-0.08-0.083c-0.08,0-1.203,0.456-1.899,0.911c-0.026,0.775-0.054,1.737-0.081,2.489
	c0,0.106-0.106,0.186-0.16,0.186c-0.562,0.027-1.151,0.055-1.712,0.055c-0.027,0.4-0.054,0.883-0.054,1.311c0.615,0,1.311,0,1.847,0
	c0,0.669-0.027,2.272-0.027,3.103c0,0.642-0.027,2.754-0.027,4.12c0,0.828,0.027,1.444,0.722,2.086
	C123.71,167.627,124.459,167.654,125.021,167.654L125.021,167.654z M131.628,163.828c-0.455,0.055-0.937,0.134-1.392,0.24
	c0.135,1.045,0.268,2.061,0.402,3.104c0.588,0.241,1.765,0.507,3.209,0.507c1.311,0,2.515-0.238,3.237-0.668
	c1.125-0.669,1.712-1.659,1.712-2.835c0-2.033-1.498-2.648-3.424-3.209c-2.14-0.643-2.648-0.829-2.648-1.928
	c0-0.695,0.294-1.123,0.668-1.39c0.375-0.294,0.964-0.51,1.659-0.51c0.641,0,1.231,0.134,1.578,0.402
	c0.081,0.053,0.16,0.159,0.188,0.293l0.374,1.687c0.456-0.054,0.964-0.134,1.365-0.188c-0.081-0.989-0.187-1.978-0.295-2.941
	c-0.267-0.161-1.203-0.48-2.621-0.48c-1.311,0-2.381,0.241-3.184,0.694c-0.856,0.482-1.685,1.419-1.685,2.702
	c0,1.497,0.856,2.353,3.023,3.021c2.22,0.671,3.022,0.831,3.022,2.196c0,0.748-0.348,1.203-0.749,1.496
	c-0.563,0.376-1.257,0.43-2.007,0.43c-0.749,0-1.471-0.269-1.846-0.564c-0.16-0.104-0.187-0.186-0.241-0.317L131.628,163.828
	L131.628,163.828z M150.191,166.154c-0.027,0.4-0.027,0.856-0.027,1.259c1.123,0,2.355-0.028,3.451-0.028s2.408,0.028,3.37,0.028
	c0-0.402,0.027-0.858,0.027-1.259l-2.46-0.079l0.053-14.713c2.328,0,2.809,0.026,3.504,0.081c0.508,0.053,0.615,0.214,0.668,0.508
	l0.401,2.595c0.535-0.053,1.07-0.106,1.499-0.161c-0.053-1.443-0.108-2.941-0.214-4.358c-0.562,0-1.204,0-2.3,0.027
	c-0.642,0-3.692,0-4.495,0c-0.882,0-3.959,0-4.547,0c-1.097,0-1.952-0.027-2.46-0.027c-0.108,1.443-0.162,2.94-0.268,4.386
	c0.48,0.055,1.016,0.107,1.498,0.134l0.428-2.567c0.053-0.294,0.161-0.482,0.668-0.509c0.589-0.081,1.177-0.107,3.478-0.107v14.634
	c0,0.024-0.026,0.079-0.107,0.079L150.191,166.154L150.191,166.154z M160.625,162.276c0,3.131,1.925,5.402,5.403,5.402
	c1.149,0,2.781-0.4,4.252-1.124c-0.054-0.373-0.162-0.827-0.294-1.203c-0.935,0.376-2.327,0.858-3.558,0.858
	c-1.097,0-1.953-0.162-2.755-1.071c-0.615-0.721-0.909-1.846-0.883-3.317c1.685,0,5.217-0.025,6.795-0.079
	c0.267-0.028,0.775-0.642,0.91-0.963c0-1.205-0.241-2.517-1.017-3.506c-0.695-0.854-1.766-1.362-3.156-1.362
	C162.87,155.911,160.625,158.798,160.625,162.276L160.625,162.276z M166,157.167c0.802,0,1.338,0.293,1.739,0.802
	c0.4,0.483,0.721,1.339,0.721,2.248c0,0.215-0.133,0.294-0.347,0.294c-1.525,0.056-3.691,0.08-5.216,0.08
	c0.08-1.363,0.775-2.193,1.124-2.622C164.475,157.46,165.09,157.167,166,157.167L166,157.167z M172.633,162.465
	c0,3.396,2.3,5.214,4.896,5.214c1.149,0,2.809-0.372,4.253-1.097c-0.081-0.372-0.187-0.801-0.294-1.149
	c-0.884,0.349-2.274,0.805-3.317,0.805c-0.802,0-1.766-0.241-2.408-1.02c-0.668-0.8-0.963-1.763-0.963-3.262
	c0-1.658,0.615-2.837,1.204-3.504c0.562-0.643,1.257-0.992,2.3-0.992c1.097,0,2.142,0.564,2.409,0.644
	c0.321-0.188,0.856-1.257,0.856-1.633c-0.401-0.266-1.284-0.56-2.461-0.56C175.31,155.911,172.633,158.639,172.633,162.465
	L172.633,162.465z M186.704,157.488c0.027-2.942,0.081-6.206,0.081-8.72c0-0.081-0.027-0.106-0.081-0.106
	c-0.213,0-2.968,0.507-4.012,0.641c-0.027,0.321-0.054,0.751-0.027,1.124l2.033,0.028c0,4.679,0,10.912-0.026,15.593
	c0,0.054-0.027,0.106-0.08,0.106l-1.525,0.083c-0.028,0.373-0.028,0.801-0.028,1.176c0.802,0,1.819-0.028,2.596-0.028
	c1.069,0,2.193,0,3.076,0c0-0.374,0.026-0.803,0.026-1.175l-2.06-0.056c0-2.005,0.026-5.054,0.053-7.167
	c1.098-0.775,2.568-1.472,3.665-1.472c0.482,0,1.23,0.106,1.685,0.855c0.401,0.616,0.401,1.499,0.401,2.809c0,1.444,0,3.424,0,4.868
	c0,0.054-0.053,0.106-0.107,0.106l-1.577,0.107c0,0.376-0.026,0.803,0,1.151c0.829,0,1.817-0.028,2.701-0.028s1.898,0,2.729,0
	c0.027-0.374,0.027-0.803,0.027-1.175l-1.767-0.056c0.027-2.086,0.055-4.333,0.055-6.34c0-0.775-0.08-1.471-0.374-2.005
	c-0.589-0.99-1.633-1.898-2.97-1.898c-0.989,0-1.553,0.053-4.388,1.604L186.704,157.488L186.704,157.488z M199.597,157.784
	l0.027,8.291c0,0.054-0.054,0.079-0.107,0.079l-1.578,0.083c-0.026,0.4-0.026,0.801-0.026,1.176c0.802,0,1.739-0.028,2.595-0.028
	c1.017,0,2.14,0.028,3.022,0.028c0-0.375,0.027-0.803,0.027-1.176l-1.928-0.083c0-1.952,0.027-5.054,0.056-7.061
	c1.067-0.856,2.568-1.578,3.557-1.578c0.643,0,1.312,0.106,1.819,1.016c0.348,0.615,0.348,1.633,0.348,2.701
	c0,1.499,0,3.398-0.027,4.843c0,0.054-0.027,0.079-0.08,0.106l-1.55,0.08c-0.028,0.376-0.028,0.803-0.028,1.179
	c0.749,0,1.739-0.027,2.567-0.027c0.938,0,1.953-0.028,2.81-0.028c0.026-0.374,0.026-0.774,0.026-1.147l-1.712-0.083
	c0.027-2.005,0.081-4.52,0.081-6.472c0-0.616-0.134-1.312-0.535-1.954c-0.481-0.855-1.445-1.817-2.835-1.817
	c-1.15,0-1.739,0.104-4.388,1.711l-0.133-0.027c-0.081-0.373-0.214-1.069-0.295-1.579c0-0.052,0-0.079-0.055-0.079
	c-0.188,0-2.62,0.534-3.69,0.696c0,0.348-0.026,0.749-0.026,1.096L199.597,157.784L199.597,157.784z M218.294,167.679
	c1.445,0,2.569-0.32,3.586-1.124c1.391-1.096,2.301-2.861,2.301-5.027c0-2.113-0.75-3.611-2.086-4.626
	c-0.963-0.725-2.061-0.99-3.317-0.99c-1.285,0-2.649,0.4-3.665,1.204c-1.552,1.282-2.247,3.022-2.247,4.895
	c0,1.899,0.615,3.342,1.766,4.413C215.513,167.227,216.797,167.679,218.294,167.679L218.294,167.679z M218.51,166.504
	c-0.884,0-1.633-0.322-2.141-0.884c-0.884-0.882-1.257-2.061-1.257-3.799c0-1.631,0.373-2.94,1.229-3.824
	c0.616-0.642,1.499-0.909,2.247-0.909c0.909,0,1.606,0.268,2.274,1.016c0.722,0.802,1.07,2.061,1.07,3.531
	c0,1.82-0.322,3.023-1.203,3.985C220.114,166.262,219.312,166.504,218.51,166.504L218.51,166.504z M227.657,150.48
	c0.026,4.681,0,10.86-0.026,15.567c0,0.054-0.026,0.106-0.081,0.106l-1.792,0.083c-0.026,0.373-0.026,0.801-0.026,1.176
	c0.882,0,1.926-0.028,2.89-0.028c1.123,0,2.22,0,3.102,0c0.027-0.374,0.027-0.803,0.027-1.147l-2.087-0.083
	c0.027-5.322,0.081-12.545,0.106-17.386c0-0.081-0.025-0.106-0.079-0.106c-0.214,0-2.995,0.507-4.146,0.613
	c0,0.375-0.027,0.778-0.027,1.151L227.657,150.48L227.657,150.48z M238.599,167.679c1.444,0,2.567-0.32,3.583-1.124
	c1.393-1.096,2.303-2.861,2.303-5.027c0-2.113-0.75-3.611-2.089-4.626c-0.962-0.725-2.059-0.99-3.316-0.99
	c-1.284,0-2.647,0.4-3.664,1.204c-1.552,1.282-2.248,3.022-2.248,4.895c0,1.899,0.616,3.342,1.766,4.413
	C235.816,167.227,237.102,167.679,238.599,167.679L238.599,167.679z M238.812,166.504c-0.881,0-1.631-0.322-2.139-0.884
	c-0.883-0.882-1.258-2.061-1.258-3.799c0-1.631,0.375-2.94,1.231-3.824c0.613-0.642,1.498-0.909,2.246-0.909
	c0.909,0,1.604,0.268,2.273,1.016c0.723,0.802,1.069,2.061,1.069,3.531c0,1.82-0.319,3.023-1.203,3.985
	C240.418,166.262,239.614,166.504,238.812,166.504L238.812,166.504z M249.592,164.337c-1.979,1.391-2.086,1.471-2.086,1.684
	c0,1.151,0.802,1.606,1.578,1.847V168c-0.67,0.536-1.23,0.909-2.221,1.686c-0.481,0.402-0.588,0.696-0.588,1.203
	c0,2.007,1.899,3.078,5.108,3.078c1.498,0,2.97-0.269,4.094-0.751c1.818-0.774,2.754-2.138,2.754-3.583
	c0-1.069-0.401-1.578-1.23-2.112c-0.722-0.482-1.953-0.616-3.878-0.696c-2.648-0.107-3.504-0.187-3.504-0.883
	c0-0.373,0.667-0.883,1.311-1.391c2.273,0.107,3.53-0.536,4.412-1.471c0.804-0.828,1.204-2.086,1.204-3.051
	c0-0.99-0.347-1.951-0.936-2.514v-0.107c0.535,0,1.98,0,2.542,0c0.027-0.455,0.027-0.938,0-1.365
	c-0.856,0.056-2.354,0.109-3.505,0.162c-0.16,0-0.349,0-0.562-0.053c-0.322-0.109-1.018-0.241-1.846-0.241
	c-3.211,0-5.136,2.167-5.136,4.493c0,2.086,1.31,3.236,2.487,3.798V164.337L249.592,164.337z M249.218,160.324
	c0-2.112,1.096-3.265,2.754-3.265c0.91,0,1.472,0.322,1.873,0.829c0.429,0.536,0.615,1.205,0.615,2.222
	c0,2.166-1.176,3.317-2.675,3.317C250.447,163.428,249.218,162.597,249.218,160.324L249.218,160.324z M256.226,170.062
	c0,0.91-0.535,1.605-1.472,2.113c-0.829,0.427-2.059,0.613-3.076,0.613c-1.471,0-3.316-0.534-3.316-1.899
	c0-0.88,0.856-1.552,2.086-2.621c0.534,0.028,1.444,0.056,2.782,0.162C255.53,168.59,256.226,168.83,256.226,170.062
	L256.226,170.062z M271.82,157.355c0.026-0.402,0.026-0.83,0.026-1.179c-0.615,0-1.364,0-2.086,0c-0.911,0-1.899,0.028-2.702,0.028
	c-0.027,0.348-0.027,0.775-0.027,1.15l1.633,0.08c0.08,0,0.106,0.053,0.08,0.134c-0.295,0.936-0.67,2.219-1.364,4.065
	c-0.562,1.524-0.964,2.515-1.472,3.744h-0.133c-0.456-1.229-0.938-2.568-1.526-4.253c-0.588-1.712-0.989-2.97-1.203-3.718
	l1.872-0.053c0.027-0.375,0.027-0.83,0.027-1.179c-1.043,0-2.141,0-3.236,0c-0.83,0-1.659,0-2.301,0
	c-0.027,0.349-0.027,0.804-0.027,1.179l1.31,0.08c0.056,0,0.109,0.024,0.136,0.08c0.428,1.069,0.883,2.382,1.551,4.145
	c0.777,2.033,1.418,3.667,2.301,5.805c-0.454,1.071-1.283,2.328-2.032,3.185c-0.643,0.802-1.472,1.525-2.382,2.139
	c0,0.349,1.205,1.179,1.658,1.179c0.696-0.402,1.473-1.365,2.302-2.623c1.418-2.139,3.37-6.499,4.226-8.533
	c0.99-2.406,1.899-4.599,2.194-5.375L271.82,157.355L271.82,157.355z M280.219,162.597c-0.48,0.056-1.016,0.135-1.524,0.214
	c0.106,1.365,0.24,2.835,0.347,4.228c0.91,0.375,2.622,0.641,3.934,0.641c2.193,0,3.718-0.507,4.815-1.497
	c1.016-0.909,1.55-2.22,1.55-3.717c0-2.436-1.55-3.612-4.227-4.79c-2.781-1.229-3.663-1.685-3.663-3.53
	c0-0.99,0.453-1.738,1.015-2.221c0.644-0.562,1.578-0.802,2.515-0.802c0.83,0,1.552,0.16,2.007,0.535
	c0.053,0.054,0.107,0.159,0.16,0.321l0.455,2.515c0.508-0.054,1.017-0.136,1.473-0.188c-0.056-1.311-0.162-2.675-0.295-3.959
	c-0.644-0.347-2.033-0.587-3.265-0.587c-1.819,0-3.368,0.453-4.359,1.256c-0.963,0.749-1.739,2.087-1.739,3.557
	c0,2.33,1.685,3.558,4.039,4.63c2.595,1.203,3.852,1.604,3.852,3.931c0,0.855-0.24,1.499-0.854,2.141
	c-0.615,0.642-1.794,1.044-3.049,1.044c-0.938,0-1.98-0.269-2.49-0.616c-0.133-0.055-0.187-0.159-0.213-0.293L280.219,162.597
	L280.219,162.597z M291.961,162.276c0,3.131,1.926,5.402,5.403,5.402c1.15,0,2.783-0.4,4.253-1.124
	c-0.053-0.373-0.16-0.827-0.294-1.203c-0.936,0.376-2.326,0.858-3.558,0.858c-1.097,0-1.952-0.162-2.754-1.071
	c-0.616-0.721-0.91-1.846-0.883-3.317c1.685,0,5.215-0.025,6.793-0.079c0.268-0.028,0.776-0.642,0.91-0.963
	c0-1.205-0.241-2.517-1.017-3.506c-0.696-0.854-1.767-1.362-3.156-1.362C294.208,155.911,291.961,158.798,291.961,162.276
	L291.961,162.276z M297.338,157.167c0.802,0,1.337,0.293,1.738,0.802c0.402,0.483,0.722,1.339,0.722,2.248
	c0,0.215-0.133,0.294-0.347,0.294c-1.524,0.056-3.692,0.08-5.217,0.08c0.081-1.363,0.777-2.193,1.123-2.622
	C295.813,157.46,296.429,157.167,297.338,157.167L297.338,157.167z M305.497,157.756c0,2.542,0,5.699,0,8.346
	c0,0.027-0.054,0.08-0.108,0.08l-1.551,0.08c-0.027,0.349-0.027,0.776-0.027,1.151c0.857,0,1.847-0.028,2.782-0.028
	c1.15,0,2.435,0,3.397,0c0.027-0.374,0.027-0.803,0.027-1.147l-2.515-0.056c0-0.882,0-1.953,0.026-2.889
	c0-0.854,0.134-1.847,0.455-2.433c0.668-1.314,1.257-2.087,1.738-2.517c0.401-0.294,0.642-0.375,0.908-0.375
	c0.483,0,1.126,0.16,1.365,0.188c0.32-0.24,0.749-1.39,0.749-1.951c-0.373-0.162-0.988-0.294-1.578-0.294
	c-1.124,0-2.086,0.694-3.611,3.69l-0.134-0.027c-0.025-1.418-0.053-2.862-0.107-3.559c0-0.052,0-0.079-0.025-0.079
	c-0.161,0-2.648,0.509-3.719,0.669c-0.026,0.375-0.026,0.75-0.026,1.123L305.497,157.756L305.497,157.756z M326.547,157.355
	c0.027-0.402,0.027-0.83,0.027-1.179c-0.615,0-1.337,0-2.059,0c-0.91,0-1.9,0.028-2.729,0.028c-0.026,0.348-0.026,0.775-0.026,1.15
	l1.551,0.08c0.053,0,0.079,0.024,0.053,0.08c-0.294,0.989-0.775,2.247-1.497,4.092c-0.669,1.765-1.069,2.648-1.552,3.771h-0.161
	c-0.401-1.15-0.748-2.273-1.364-4.172c-0.588-1.874-0.962-3.157-1.124-3.799l1.792-0.053c0.028-0.375,0.028-0.83,0.028-1.179
	c-0.938,0-2.007,0-3.023,0c-0.908,0-1.818,0-2.541,0c-0.027,0.376-0.027,0.776-0.027,1.179l1.393,0.08
	c0.053,0,0.079,0.024,0.105,0.08c0.349,0.989,0.749,2.086,1.5,4.306c0.827,2.407,1.283,3.506,2.192,5.857
	c0.562,0,1.149,0,1.523-0.024c1.019-2.009,1.606-3.29,2.381-5.084c1.098-2.433,1.928-4.358,2.301-5.135L326.547,157.355
	L326.547,157.355z M330.238,150.506c-0.989,0-1.523,0.669-1.523,1.418c0,0.774,0.614,1.42,1.443,1.42
	c0.83,0,1.418-0.617,1.418-1.445C331.576,151.309,331.229,150.506,330.238,150.506L330.238,150.506z M329.329,157.756v8.292
	c0,0.054-0.026,0.106-0.106,0.106l-1.791,0.083c0,0.373,0,0.773,0,1.176c0.883,0,1.871-0.028,2.781-0.028c0.989,0,2.112,0,2.968,0
	c0.027-0.374,0.027-0.747,0.027-1.147l-1.872-0.083c0-2.834,0.054-7.223,0.054-10.164c0-0.054,0-0.079-0.054-0.079
	c-0.215,0-2.916,0.508-4.066,0.668c0,0.347,0,0.749,0,1.122L329.329,157.756L329.329,157.756z M334.76,162.465
	c0,3.396,2.301,5.214,4.895,5.214c1.15,0,2.81-0.372,4.254-1.097c-0.08-0.372-0.188-0.801-0.294-1.149
	c-0.883,0.349-2.274,0.805-3.317,0.805c-0.803,0-1.766-0.241-2.408-1.02c-0.668-0.8-0.962-1.763-0.962-3.262
	c0-1.658,0.615-2.837,1.203-3.504c0.562-0.643,1.259-0.992,2.301-0.992c1.098,0,2.142,0.564,2.407,0.644
	c0.321-0.188,0.856-1.257,0.856-1.633c-0.402-0.266-1.284-0.56-2.462-0.56C337.436,155.911,334.76,158.639,334.76,162.465
	L334.76,162.465z M345.378,162.276c0,3.131,1.929,5.402,5.405,5.402c1.149,0,2.781-0.4,4.253-1.124
	c-0.054-0.373-0.161-0.827-0.294-1.203c-0.937,0.376-2.327,0.858-3.558,0.858c-1.097,0-1.953-0.162-2.756-1.071
	c-0.614-0.721-0.909-1.846-0.883-3.317c1.686,0,5.216-0.025,6.795-0.079c0.267-0.028,0.774-0.642,0.908-0.963
	c0-1.205-0.241-2.517-1.016-3.506c-0.695-0.854-1.765-1.362-3.156-1.362C347.626,155.911,345.378,158.798,345.378,162.276
	L345.378,162.276z M350.757,157.167c0.801,0,1.336,0.293,1.737,0.802c0.401,0.483,0.723,1.339,0.723,2.248
	c0,0.215-0.133,0.294-0.348,0.294c-1.525,0.056-3.691,0.08-5.216,0.08c0.08-1.363,0.775-2.193,1.123-2.622
	C349.231,157.46,349.846,157.167,350.757,157.167L350.757,157.167z M358.565,163.828c-0.452,0.055-0.935,0.134-1.39,0.24
	c0.133,1.045,0.268,2.061,0.4,3.104c0.589,0.241,1.767,0.507,3.211,0.507c1.311,0,2.514-0.238,3.236-0.668
	c1.124-0.669,1.713-1.659,1.713-2.835c0-2.033-1.5-2.648-3.425-3.209c-2.14-0.643-2.648-0.829-2.648-1.928
	c0-0.695,0.295-1.123,0.67-1.39c0.374-0.294,0.963-0.51,1.658-0.51c0.641,0,1.229,0.134,1.578,0.402
	c0.081,0.053,0.16,0.159,0.188,0.293l0.373,1.687c0.456-0.054,0.964-0.134,1.364-0.188c-0.08-0.989-0.187-1.978-0.294-2.941
	c-0.268-0.161-1.203-0.48-2.621-0.48c-1.311,0-2.38,0.241-3.184,0.694c-0.856,0.482-1.685,1.419-1.685,2.702
	c0,1.497,0.854,2.353,3.022,3.021c2.221,0.671,3.023,0.831,3.023,2.196c0,0.748-0.349,1.203-0.75,1.496
	c-0.562,0.376-1.258,0.43-2.005,0.43c-0.751,0-1.473-0.269-1.847-0.564c-0.161-0.104-0.188-0.186-0.239-0.317L358.565,163.828
	L358.565,163.828z"/>
<path fill="#0061A2" d="M108.153,65.755c0-19.665-10.696-37.803-27.915-47.338c-3.076-1.702-6.951-0.591-8.654,2.486
	c-1.703,3.075-0.59,6.949,2.486,8.652c13.169,7.292,21.352,21.164,21.352,36.2c0,22.8-18.548,41.348-41.345,41.348
	c-22.799,0-41.346-18.548-41.346-41.348c0-14.831,8.016-28.609,20.92-35.957c3.055-1.74,4.121-5.627,2.381-8.682
	c-1.739-3.056-5.627-4.121-8.681-2.382C10.48,28.342,0,46.359,0,65.755c0,29.819,24.259,54.079,54.078,54.079
	C83.896,119.834,108.153,95.574,108.153,65.755L108.153,65.755z M60.442,62.857V6.365c0-3.515-2.85-6.365-6.365-6.365
	c-3.516,0-6.366,2.851-6.366,6.365v56.492c0,3.515,2.85,6.366,6.366,6.366C57.592,69.223,60.442,66.373,60.442,62.857L60.442,62.857
	z"/>
<path fill="#0061A2" d="M206.064,111.332l-36.045-89.155c-0.798-2.494-2.625-3.847-5.158-3.847h-4.624
	c-2.536,0-4.364,1.354-5.149,3.815l-35.959,89.08c-0.529,1.141-0.598,1.986-0.598,2.665c0,2.576,2.127,4.593,4.841,4.593h4.361
	c2.066,0,3.875-1.173,4.838-3.137l8.646-21.562h42.409l8.573,21.114c0.71,2.19,2.681,3.585,5.031,3.585h4.624
	c2.716,0,4.843-2.017,4.843-4.593c0-0.919-0.28-1.633-0.506-2.209L206.064,111.332L206.064,111.332z M146.234,80.686l16.247-40.055
	l16.251,40.055H146.234L146.234,80.686z"/>
<path fill="#0061A2" d="M356.461,66.43c-5.675-3.029-11.391-4.604-16.921-6.127c-3.553-0.977-7.219-1.987-10.806-3.362
	c-9.917-3.956-11.284-8.05-11.284-11.885c0-3.963,1.101-7.049,3.274-9.173c3.336-3.182,9.074-4.86,16.594-4.86
	c6.972,0,14.564,2.062,20.311,5.514l0.254,0.14c0.847,0.432,1.716,0.655,2.57,0.655c1.954,0,3.643-1.173,4.301-2.99l1.507-3.318
	c0.692-1.195,0.872-2.505,0.524-3.734c-0.355-1.266-1.232-2.312-2.466-2.945c-7.021-4.345-16.753-6.826-26.738-6.826
	c-11.484,0-20.311,2.734-26.233,8.126c-5.459,4.655-8.337,11.457-8.337,19.681c0,10.503,5.632,18.294,16.739,23.157
	c5.482,2.41,10.575,3.876,15.07,5.17c4.314,1.245,8.386,2.419,12.197,4.238c8.281,3.891,9.241,8.852,9.241,12.248
	c0,5.389-1.874,9.553-5.563,12.381c-3.448,2.582-8.438,3.946-14.436,3.946c-11.399,0-18.629-4.212-24.511-8.16
	c-1.153-0.866-2.244-1.045-2.96-1.045c-1.804,0-3.341,1.026-4.216,2.814l-1.817,3.85c-0.813,1.653-0.863,4.263,1.661,6.194
	l0.235,0.165c9.731,6.423,20.074,9.55,31.607,9.55c9.737,0,18.007-2.472,23.912-7.149c6.976-5.342,10.66-13.37,10.66-23.222
	C370.832,79.738,365.729,71.559,356.461,66.43L356.461,66.43z"/>
<path fill="#0061A2" d="M281.934,18.735h-69.897c-2.669,0-4.841,2.18-4.841,4.861v3.914c0,2.636,2.218,4.864,4.841,4.864h27.796
	v81.248c0,2.634,2.217,4.86,4.841,4.86h4.625c2.596,0,4.709-2.18,4.709-4.86V32.373h27.927c2.625,0,4.842-2.228,4.842-4.864v-3.914
	C286.775,20.915,284.604,18.735,281.934,18.735L281.934,18.735z"/>
</svg>
